<svg id="Capa_1" data-name="Capa 1" xmlns="http://www.w3.org/2000/svg" viewBox="0 0 893.25 159.83"><defs><style>.cls-1{fill:aqua;}.cls-2{fill:#fff;}.cls-3{fill:none;stroke:aqua;stroke-miterlimit:10;stroke-width:4px;}</style></defs><path class="cls-1" d="M278.74,51.86V4.59h37.81L326,14V42.41l-9.46,9.45Zm9.45-9.45h23.64l4.72-4.73V19.21L311.83,14H288.19Z"/><path class="cls-1" d="M401.64,4.59V51.86h-9.45V4.59Z"/><path class="cls-1" d="M515.09,51.86H467.82V4.59h47.27V14H477.27V42.41h28.36V33h-9.45V23.5h18.91Z"/><path class="cls-1" d="M590.72,4.59V51.86h-9.45V4.59Z"/><path class="cls-1" d="M656.9,4.59h47.27V14H685.26V51.86h-9.45V14H656.9Z"/><path class="cls-1" d="M775.07,51.86V42.41h9.16l-9.16-23.64L762.22,51.86H751.44L770.35,4.59h9.45l18.91,47.27Z"/><path class="cls-1" d="M893.25,51.86H846V4.59h9.45V42.41H883.8V33h9.45Z"/><path class="cls-2" d="M347.49,146.8H312.8l-4.73,10.84h-27l43.17-94.06H336l43.22,94.06h-27Zm-7.83-18-9.51-22-9.57,22Z"/><path class="cls-2" d="M488.67,113.32c0,28.24-21.33,46.51-47.72,46.51-29.51,0-51.81-22-51.81-48.53s22.36-48.81,51.17-48.81c11.82.17,25.48,5.19,33.14,12.27L459.79,93.49a29.8,29.8,0,0,0-19.48-7.95c-13.83,0-26,11.36-26,25.71,0,13,10.43,25.7,27.61,25.7,11.24,0,19.25-5.42,19.59-14.29H440.26V104.27h47.66A61.92,61.92,0,0,1,488.67,113.32Z"/><path class="cls-2" d="M538.5,87.67v13H568v20.58H538.5v13.31h35.84v23.11H514.12V64.74h60.22V87.67Z"/><path class="cls-2" d="M681.69,64.62v93.94h-7.84l-47.78-46.28V157.7H601.4V63.81h8L657,109.92V64.62Z"/><path class="cls-2" d="M707.13,111.19c0-27.49,22.25-48.64,51.18-48.64,12,.17,24.84,5.41,34.35,14.06L778.48,94.82c-5.7-5.19-13.25-8.59-20.11-8.59-14.29,0-26.22,10.9-26.22,25.13,0,14.41,12.45,25,25.7,25,7.78,0,14.76-3.69,20.75-9l14.06,18.73a51.17,51.17,0,0,1-34.81,13.65C731.63,159.71,707.13,140.35,707.13,111.19Z"/><path class="cls-2" d="M838.28,117.53,809.64,64.74h28l13,26.91,12.91-26.91h28l-28.7,52.79v40.11h-24.5Z"/><path class="cls-1" d="M64.67,0l67.54.07-45.75,118H64.67C24.53,118.06,0,95.79,0,59.18,0,22.26,24.53-.15,64.67,0Zm.51,88.54L89,29.3H65.47c-21.16,0-34,11.27-34,29.8C31.42,77.41,44.23,88.54,65.18,88.54Z"/><path class="cls-2" d="M166,139.87H122l-5,13.38H86.34l44.6-119.12h20.45l54.92,119.52H172Zm-10-22.92L142.38,85.77,131.09,117Z"/><line class="cls-3" x1="233" y1="3.23" x2="233" y2="157.23"/></svg>