<svg id="Capa_1" data-name="Capa 1" xmlns="http://www.w3.org/2000/svg" viewBox="0 0 120 120"><defs><style>.cls-1{fill:#fff;}</style></defs><path class="cls-1" d="M115,95.73A29.33,29.33,0,0,1,113.42,99a8.88,8.88,0,0,1-7.55,3.66q-16.12,0-32.23,0H13.4c-4.45,0-7.64-2.31-8.83-6.35a9.23,9.23,0,0,1-.34-2.67q0-34.23,0-68.45c0-5.39,3.7-9,9.16-9q46.19,0,92.36,0c4.71,0,8.27,2.91,9,6.92,0,.08.13.15.19.22ZM59.61,33.26q-25.47,0-50.94,0c-1,0-1.21.27-1.21,1.24q0,29.42,0,58.82c0,4,2.12,6.1,6,6.1h92.14c3.94,0,6.06-2.14,6.06-6.09q0-29.41,0-58.83c0-.95-.19-1.24-1.21-1.24Q85.08,33.29,59.61,33.26Zm0-3.25h50.71a4.68,4.68,0,0,1,.65,0c.6.08.82-.13.79-.76,0-1.19,0-2.38,0-3.57,0-4.25-2-6.3-6.28-6.3H13.77c-.33,0-.65,0-1,0a5.36,5.36,0,0,0-5.31,5.42c0,1.33.07,2.67,0,4-.07,1,.26,1.21,1.23,1.21Q34.14,30,59.6,30Z"/><path class="cls-1" d="M35.34,59.5H51.88c2.92,0,4.14,1.21,4.15,4.11,0,1.91,0,3.82,0,5.73,0,2.51-1.3,3.82-3.79,3.82q-16.92,0-33.83,0c-2.46,0-3.76-1.37-3.77-3.85q0-3,0-5.94c0-2.54,1.3-3.86,3.86-3.87Zm-.07,10.42c5.51,0,11,0,16.54,0,.74,0,1-.18,1-1q-.08-2.7,0-5.4c0-.69-.21-.84-.86-.83q-16.59,0-33.19,0c-.76,0-.88.28-.87.94,0,1.73.07,3.46,0,5.19,0,.88.26,1.07,1.09,1.06C24.38,69.9,29.83,69.92,35.27,69.92Z"/><path class="cls-1" d="M35.32,54.07H18.68c-2.83,0-4-1.24-4.06-4.1,0-1.94,0-3.89,0-5.83a3.4,3.4,0,0,1,3.69-3.72q17,0,34,0A3.36,3.36,0,0,1,56,44.05c0,2.05,0,4.11,0,6.16,0,2.58-1.27,3.85-3.84,3.86Zm0-10.41c-5.47,0-10.95,0-16.43,0-.82,0-1,.22-1,1,.07,1.76,0,3.53,0,5.3,0,.64.14.87.83.87q16.65,0,33.3,0c.62,0,.8-.18.79-.79,0-1.8-.06-3.61,0-5.41,0-.85-.27-1-1-1C46.26,43.67,40.78,43.66,35.3,43.66Z"/><path class="cls-1" d="M35.37,78.59H52c2.79,0,4,1.22,4,4,0,2,0,3.89,0,5.84,0,2.48-1.34,3.79-3.82,3.8H18.48c-2.52,0-3.85-1.35-3.85-3.88,0-2,0-4,0-6,0-2.49,1.29-3.81,3.77-3.81C24.06,78.58,29.72,78.59,35.37,78.59Zm0,10.4c5.47,0,10.95,0,16.42,0,.73,0,1-.15,1-.94-.06-1.76-.06-3.53,0-5.29,0-.75-.18-1-.94-1-5.22,0-10.45,0-15.67,0-5.72,0-11.45,0-17.17,0-1,0-1.2.28-1.16,1.2.08,1.62.07,3.24,0,4.86C17.82,88.74,18,89,19,89,24.43,89,29.91,89,35.38,89Z"/><path class="cls-1" d="M97.89,48.87c-1.62,0-3.25,0-4.87,0a1.07,1.07,0,0,0-1.16.68,4.77,4.77,0,0,1-4.52,2.77,4.82,4.82,0,0,1-4.52-2.79,1.06,1.06,0,0,0-1.17-.66c-.93,0-1.87,0-2.81,0-1.09,0-1.7-.6-1.74-1.52a1.58,1.58,0,0,1,1.67-1.71,22,22,0,0,1,2.81,0,1.21,1.21,0,0,0,1.32-.77,5,5,0,0,1,8.93.06,1.12,1.12,0,0,0,1.24.7c3.07,0,6.13,0,9.19,0a3,3,0,0,1,1.37.21,1.47,1.47,0,0,1,.9,1.67A1.52,1.52,0,0,1,103,48.85c-1.69,0-3.38,0-5.07,0Zm-8.7-1.59a1.92,1.92,0,0,0-1.76-1.85,1.83,1.83,0,0,0-1.89,1.8,1.77,1.77,0,0,0,1.74,1.82A1.84,1.84,0,0,0,89.19,47.28Z"/><path class="cls-1" d="M84.72,64.71c1.87,0,3.74,0,5.62,0A1.08,1.08,0,0,0,91.5,64a5.06,5.06,0,0,1,9,0,1,1,0,0,0,1.06.67,8.78,8.78,0,0,1,1.62,0,1.44,1.44,0,0,1,1.33,1.46c0,.78-.37,1.62-1.15,1.56-1.93-.16-2.84,1-4,2.24a4.88,4.88,0,0,1-7.78-1.28A1.34,1.34,0,0,0,90.19,68c-3.5,0-7,0-10.48,0a8.42,8.42,0,0,1-.87,0c-1.14-.09-1.76-.68-1.74-1.64s.62-1.56,1.78-1.58C80.83,64.69,82.77,64.72,84.72,64.71Zm11.34-.19A1.81,1.81,0,1,0,96,68.14a1.81,1.81,0,1,0,.08-3.62Z"/><path class="cls-1" d="M98.51,87c-1.26,0-2.52,0-3.78,0a1.06,1.06,0,0,0-1.15.68,5,5,0,0,1-9,0,1.06,1.06,0,0,0-1.14-.7q-2.33.06-4.65,0a1.59,1.59,0,0,1-1.64-1.16,1.54,1.54,0,0,1,.63-1.8A2,2,0,0,1,79,83.79c1.48,0,3,0,4.44,0a1,1,0,0,0,1.06-.63A4.84,4.84,0,0,1,89,80.34a4.78,4.78,0,0,1,4.59,2.84,1,1,0,0,0,1.09.62c2.59,0,5.19,0,7.78,0,1.34,0,2.12.64,2.09,1.66S103.79,87,102.51,87,99.84,87,98.51,87ZM87.28,85.27a1.84,1.84,0,0,0,1.73,2,1.91,1.91,0,0,0,1.9-1.7,1.85,1.85,0,0,0-1.65-1.93A1.78,1.78,0,0,0,87.28,85.27Z"/><path class="cls-1" d="M59.74,85.4a6.82,6.82,0,1,1,13.63,0,6.82,6.82,0,0,1-13.63,0Zm6.78-3.55A3.53,3.53,0,0,0,63,85.42,3.58,3.58,0,0,0,66.56,89a3.62,3.62,0,0,0,3.55-3.6A3.55,3.55,0,0,0,66.52,81.85Z"/><path class="cls-1" d="M66.55,54.05a6.79,6.79,0,0,1-6.81-6.75,6.82,6.82,0,1,1,6.81,6.75Zm0-3.24A3.57,3.57,0,1,0,63,47.21,3.56,3.56,0,0,0,66.5,50.81Z"/><path class="cls-1" d="M59.76,66.57a6.8,6.8,0,1,1,13.59-.44,6.8,6.8,0,1,1-13.59.44ZM63,66.29a3.56,3.56,0,1,0,3.59-3.51A3.52,3.52,0,0,0,63,66.29Z"/><path class="cls-1" d="M63.08,26.32H31c-1.67,0-2.45-.51-2.46-1.6s.81-1.64,2.44-1.64H95.61c1.27,0,2,.64,2,1.63s-.75,1.61-2,1.61H63.08Z"/><path class="cls-1" d="M104.66,26.31c-.61,0-1.22,0-1.83,0a1.48,1.48,0,0,1-1.46-1.45,1.41,1.41,0,0,1,1.2-1.66,12.81,12.81,0,0,1,4.28,0A1.4,1.4,0,0,1,108,24.79a1.47,1.47,0,0,1-1.42,1.5c-.64.06-1.29,0-1.94,0Z"/><path class="cls-1" d="M12.8,23.09a1.66,1.66,0,0,1,1.59,1.69,1.61,1.61,0,0,1-1.61,1.53,1.64,1.64,0,0,1-1.61-1.66A1.74,1.74,0,0,1,12.8,23.09Z"/><path class="cls-1" d="M24.79,24.75a1.61,1.61,0,0,1-1.58,1.56,1.63,1.63,0,0,1-1.64-1.63,1.74,1.74,0,0,1,1.61-1.59A1.64,1.64,0,0,1,24.79,24.75Z"/><path class="cls-1" d="M19.59,24.74A1.59,1.59,0,0,1,18,26.31a1.63,1.63,0,0,1-1.65-1.62,1.74,1.74,0,0,1,1.6-1.6A1.65,1.65,0,0,1,19.59,24.74Z"/></svg>