<svg id="Capa_1" data-name="Capa 1" xmlns="http://www.w3.org/2000/svg" viewBox="0 0 120 120"><defs><style>.cls-1{fill:#fff;}</style></defs><path class="cls-1" d="M32.91,116.89c-.12-.32-.46-.33-.69-.48a3.32,3.32,0,0,1,1.62-6.17c1.63,0,3.26,0,4.89,0,.71,0,.86-.22.84-.88,0-1.88-.08-3.78,0-5.66.05-1-.33-1.11-1.19-1.11-7.88,0-15.76,0-23.65,0a9,9,0,0,1-9-6.47,9.78,9.78,0,0,1-.36-2.74q0-26.49,0-53a8.9,8.9,0,0,1,9.32-9.25q26.15,0,52.3,0a2.89,2.89,0,0,0,2-.72Q84.27,18,99.57,5.47c3.06-2.5,6.45-3.12,10-1.36a8.66,8.66,0,0,1,5,8.44,9.14,9.14,0,0,1-2.33,5.74c-4.5,5.49-9,11-13.48,16.5a2.72,2.72,0,0,0-.65,1.9q0,28.26,0,56.52c0,4.57-2.59,8-6.77,9.12a11.48,11.48,0,0,1-2.86.29c-7.85,0-15.7,0-23.55,0-.83,0-1,.19-1,1,.07,2,0,3.92,0,5.88,0,.6.17.75.74.73,1.48,0,3,0,4.44,0a3.44,3.44,0,0,1,3.7,2.68c.33,1.62-.49,3-2.3,3.82,0,0-.08.11-.12.16ZM91.52,44.14,91.31,44,90.2,45.38c-2.27,2.78-4.51,5.59-6.83,8.33a12.83,12.83,0,0,1-9.85,4.78c-1.23,0-1.31.43-1.28,1.45a14,14,0,0,1-10.42,14.2,26.5,26.5,0,0,1-7,.56c-3.49,0-6.85.42-9.76,2.64a3.21,3.21,0,0,1-4.15-.52,3.28,3.28,0,0,1-.22-4.27,12.13,12.13,0,0,0,2.07-4.84c.6-2.71.27-5.46.43-8.19.33-5.83,2.92-10.21,8.34-12.72a14.4,14.4,0,0,1,6.91-1.25c.32,0,.91.33.89-.42a14.14,14.14,0,0,1,1.89-7.27l-.54,0q-23,0-46,0c-1.83,0-2.63.89-2.63,2.8q0,21.26,0,42.53c0,.89.26,1.07,1.1,1.07q38.64,0,77.29,0c.92,0,1.16-.22,1.15-1.14q0-18.5,0-37ZM51.79,90.89h-38c-1.78,0-1.78,0-1.78,1.77,0,2.7.6,3.3,3.35,3.3H89a2.34,2.34,0,0,0,2.52-2.58,8.27,8.27,0,0,1,0-1.22c.2-1.12-.3-1.29-1.32-1.29Q71,90.92,51.79,90.89ZM108,12.05a2.31,2.31,0,0,0-1.39-2,2.41,2.41,0,0,0-2.76.52l-24,19.58c-.47.38-.61.58-.11,1.07q3.45,3.37,6.83,6.82c.39.4.59.5,1,0Q97.44,26,107.31,13.88A2.77,2.77,0,0,0,108,12.05ZM55.35,68c.89,0,1.78,0,2.66,0,4.89-.23,7.93-3.68,7.56-8.57a8.05,8.05,0,0,0-7.46-7.22c-4.3-.21-7.4,2.19-8.16,6.3a14.91,14.91,0,0,0-.17,3,32.36,32.36,0,0,1-.35,6.3c-.11.63.08.66.62.57A27.62,27.62,0,0,1,55.35,68ZM66,44.89a6.91,6.91,0,0,0,4.36,6.49A6.82,6.82,0,0,0,78,49.75C79.57,48,81,46,82.57,44.21c.42-.49.1-.69-.19-1-2.58-2.6-5.18-5.18-7.75-7.79-.42-.42-.68-.48-1.16-.07-1.66,1.41-3.38,2.75-5,4.16A6.73,6.73,0,0,0,66,44.89ZM51.67,110.23c1.63,0,3.26,0,4.89,0,.63,0,.8-.18.79-.8,0-2,0-4.07,0-6.1,0-.48-.06-.73-.64-.73-3.29,0-6.58,0-9.88,0-.5,0-.61.17-.61.64,0,2.11,0,4.22,0,6.33,0,.55.18.67.69.66C48.49,110.21,50.08,110.23,51.67,110.23Z"/></svg>