<svg id="Capa_1" data-name="Capa 1" xmlns="http://www.w3.org/2000/svg" viewBox="0 0 120 120"><defs><style>.cls-1{fill:#fff;}</style></defs><path class="cls-1" d="M19.46,117h-.67c-.07-.07-.13-.19-.21-.2a17.7,17.7,0,0,1-9.18-3.65l-2.34-2.24a19,19,0,0,1-3.52-6.84c-.15-.58-.09-1.23-.52-1.73V31.9c1.29-1.22,1.9-1.26,3.11-.22.47,1.31.08,2.67.26,4v53.9c2.9-3.32,3.81-4,8.63-6.12a28.84,28.84,0,0,1,4.89-.72,17.88,17.88,0,0,1,11.52,4.34l2.24,2.41V64.78q0-7.89,0-15.78V44.78q0-7.87,0-15.77V24.79c0-1.8.1-3.6,0-5.4a12.52,12.52,0,0,0-3-7.53,8,8,0,0,0-2.3-2.22A13.32,13.32,0,0,0,13.69,8.38a12.11,12.11,0,0,0-5.6,5.51A10.32,10.32,0,0,0,6.79,17c-.65,2.34-.4,4.75-.42,7.13,0,1-.17,1.79-1.17,2.13S3.54,26,3,25.24V17.91c.4-.35.33-.87.43-1.31a17.07,17.07,0,0,1,19.37-13A18.68,18.68,0,0,1,31,7.3L33.2,9.53a18.15,18.15,0,0,1,3.7,8.41c.23,1.65.27,1.65,2,1.54a.45.45,0,0,0,.11,0,33,33,0,0,0,4.22,0c5.26.08,10.51.1,15.77,0a33,33,0,0,0,4.22,0c5.26.08,10.52.1,15.77,0a33.17,33.17,0,0,0,4.23,0c5.25.08,10.51.1,15.77,0a33,33,0,0,0,4.22,0l6.54.05c4.31,0,7,2.72,7,7v83.34a6.52,6.52,0,0,1-5.77,7H20.71C20.3,116.82,19.84,116.62,19.46,117ZM46.76,22.9c-.36.13-.17.27,0,.4a52.15,52.15,0,0,0,3.09,4.84,13.49,13.49,0,0,0,1.56,2.44c1.74,3.2,1.35,6.21-.72,9.14-1.34,1.9-2.54,3.91-3.77,5.88a4,4,0,0,0,.25,5.21,14.19,14.19,0,0,0,1.57,2.43c.87,1.41,1.75,2.81,2.62,4.23a7.36,7.36,0,0,1,.7,6.59A27.41,27.41,0,0,1,50,67.7c-1.08,1.68-2.18,3.34-3.22,5a3.37,3.37,0,0,0-.44,3.15,3,3,0,0,0,.69,1.6c1.12,1.77,2.26,3.53,3.38,5.31.73,1.15.63,2.14-.26,2.7s-1.81.22-2.56-.93l-3.89-6-.88-2.46a9.16,9.16,0,0,1,1.78-6.24c1.35-1.94,2.56-4,3.84-6a4.13,4.13,0,0,0,0-4.87c-.65-1-1.29-2-1.93-3L44.9,53.64a9.17,9.17,0,0,0-.5-.86,7.7,7.7,0,0,1,0-9.47c1.38-2.05,2.67-4.16,4-6.25a3.85,3.85,0,0,0,.47-3.87A7.54,7.54,0,0,0,47.58,31q-2.41-3.81-4.81-7.63a.92.92,0,0,0-.89-.51c-.88.05-1.76.05-2.64.07-2.62-.09-2.19-.43-2.13,2.11V81a23.5,23.5,0,0,0,0,3.56l0,16A21.59,21.59,0,0,1,36,105.83a18.21,18.21,0,0,1-5.75,7.59h18.6L47,110.7c-.8-1.28-1.53-2.61-2.4-3.84A8.54,8.54,0,0,1,43,99.65c.34-.68.64-1.4,1-2.05,1.26-2,2.56-4,3.86-6.06C48.83,90.11,49.62,90,51,91a2.17,2.17,0,0,1-.28,2.37c-1.31,2-2.59,4-3.87,6a3.9,3.9,0,0,0-.19,4.29c.93,1.58,2,3.09,3,4.63a12.71,12.71,0,0,0,1.56,2.43c.76,2,2,3.22,4.38,2.72a8.26,8.26,0,0,1,1.65,0H66c-1.18-1.85-2.26-3.55-3.33-5.25s-2.37-3.38-2.76-5.47A9.05,9.05,0,0,1,61.48,97c1.44-2.22,2.92-4.42,4.31-6.68a3.69,3.69,0,0,0,0-4c-1.18-2-2.47-3.84-3.71-5.76l-1.72-2.94a8.29,8.29,0,0,1,1.35-7.73c1.18-1.68,2.23-3.46,3.34-5.2,1.81-2.84,1.76-4-.29-6.79A18,18,0,0,0,63,55.21c-.59-1-1.18-1.94-1.78-2.9a7.4,7.4,0,0,1,0-8.52c1.29-2,2.6-4.1,3.9-6.15,1.18-1.59,1.73-3.24.54-5.08l-5.92-9.41c-.13-.19-.27-.36-.54-.24a34.77,34.77,0,0,0-4.45,0ZM113.39,109V29.24a14.18,14.18,0,0,0-.16-4c-.42-1.61-1.46-2.36-3.37-2.38-2.8,0-5.61,0-8.41,0H97.21c-.12.42.11.59.24.8,1.3,2.05,2.58,4.11,3.92,6.13a9,9,0,0,1,1.71,4.82,8.77,8.77,0,0,1-1.68,4.82c-.64.94-1.19,1.93-1.79,2.9-.38.57-.8,1.12-1.15,1.71a2.41,2.41,0,0,1-1.91,1.45,1.84,1.84,0,0,1-1.6-2L99,37a4,4,0,0,0,.13-4.49C98,30.64,96.77,28.84,95.59,27l-1.81-2.85c-.37-1.11-1.15-1.37-2.29-1.35-3.58.08-7.17,0-10.75,0-.26,0-.59-.17-.8.16,1.81,3.17,4.09,6.05,5.69,9.34a11.58,11.58,0,0,1,.2,3.76A13.49,13.49,0,0,1,84,39.75c-1.29,2-2.55,4-3.81,6a4,4,0,0,0-.11,4.48c1,1.57,2,3.09,3,4.64l1.56,2.42a7.89,7.89,0,0,1-.49,9.14c-1.36,2-2.58,4-3.88,6.06a4.07,4.07,0,0,0,.13,5L82,79.91c.78,1.25,1.52,2.53,2.35,3.75a7.62,7.62,0,0,1,0,9.27c-.21.3-.37.64-.55,1-1.27,2-2.57,3.92-3.8,5.92a2.84,2.84,0,0,0-.39,2.52,2.49,2.49,0,0,0,.49,1.55q2.72,4.25,5.45,8.48a1.48,1.48,0,0,0,1.8,1.13c.61-.08,1.24,0,1.85-.06H99.39l-4-6.22-1.69-2.94a8.5,8.5,0,0,1,1.47-7.62c1.38-2,2.6-4,3.87-6A4.05,4.05,0,0,0,99,86c-.3-.5-.64-1-1-1.47l-1.91-3c-.48-.79-.94-1.58-1.43-2.35a7.48,7.48,0,0,1,0-8.71c1.41-2.2,2.79-4.41,4.19-6.62a3.91,3.91,0,0,0,.23-4.51C97.75,57.23,96.38,55,95,52.87a1.73,1.73,0,0,1,0-2.32,1.67,1.67,0,0,1,2.71.4c1.24,1.86,2.45,3.75,3.68,5.62l1.38,2.65a8.62,8.62,0,0,1-1.53,7.3c-1.36,1.93-2.55,4-3.82,6a4.14,4.14,0,0,0,0,4.86c.42.64.85,1.27,1.28,1.9a13,13,0,0,0,1.57,2.44c.49.82,1,1.64,1.48,2.45a7.42,7.42,0,0,1,0,8.44c-1.4,2.21-2.82,4.4-4.22,6.62a3.21,3.21,0,0,0-.74,1.8,3.6,3.6,0,0,0,.83,3.35c1.67,2.65,3.39,5.27,5,8a1.94,1.94,0,0,0,2.41,1.12,33,33,0,0,0,4.22,0c2.73.39,3.85-1.09,4.14-2.47A10.88,10.88,0,0,0,113.39,109ZM74.8,22.9H63.54l4.57,7,1.34,2.66a8.68,8.68,0,0,1-1.7,7.28c-.93,1.28-1.58,2.77-2.59,4-2.49,3-2.34,5.78.12,8.61,0,0,.11.09.16.14a17.35,17.35,0,0,0,1.75,2.73c.31.54.61,1.09,1,1.61a7.59,7.59,0,0,1,0,9.18c-1.37,2.06-2.66,4.16-4,6.25a4.15,4.15,0,0,0-.8,2A4.29,4.29,0,0,0,64.52,78c1.23,2,2.44,4,3.71,5.9A8.84,8.84,0,0,1,69.7,88.1,8.49,8.49,0,0,1,68.11,93c-.49.72-.91,1.5-1.36,2.25-1,1.53-2,3-3,4.61a3.64,3.64,0,0,0,0,3.89c1.33,2.16,2.74,4.27,4.11,6.39a18,18,0,0,0,1.74,2.73c.13.7.66.66,1.19.66,3.26,0,6.52,0,9.78,0h1.69l-5.23-8.08a14.45,14.45,0,0,1-1-3.08,9.39,9.39,0,0,1,1.77-5.47c1.36-2,2.63-4.08,3.93-6.12a4,4,0,0,0,.24-4.39c-.71-1.24-1.55-2.4-2.33-3.6a14.36,14.36,0,0,0-1.56-2.43,7.3,7.3,0,0,0-.36-.68c-2.23-3.19-2.16-6.35,0-9.55,1.39-2,2.67-4.15,4-6.24a3.86,3.86,0,0,0,.36-4,8.23,8.23,0,0,0-1.36-2.21c-1-1.52-1.84-3.09-2.86-4.56a8.55,8.55,0,0,1-1.66-6.75,15.74,15.74,0,0,1,1.92-3.71c1.3-2.09,2.77-4.08,3.88-6.28a3.37,3.37,0,0,0,0-3.65c-1.54-2.53-3.19-5-4.79-7.49-.32-.53-.67-1.06-1-1.61A1.15,1.15,0,0,0,74.8,22.9ZM31.73,106.78c2.93-4.24,2.59-11.07-.76-15.12a8.82,8.82,0,0,0-2.39-2.48,13.29,13.29,0,0,0-14-1.85A12.7,12.7,0,0,0,7.69,94.1c-2.32,4.15-1.55,10.5,1.74,14.23a8.47,8.47,0,0,0,2.48,2.4c4,3.35,10.9,3.69,15.13.75A11.3,11.3,0,0,0,31.73,106.78Z"/><path class="cls-1" d="M25.19,92.56l2.23,2.28a9.09,9.09,0,0,1,.86,8.15,8.85,8.85,0,0,1-12.37,4.62l-.87-.47L12.81,105a9.06,9.06,0,0,1-1.23-7.61,8.83,8.83,0,0,1,12.84-5.2Zm-7.68,12a5.4,5.4,0,0,0,7.52-7,4.41,4.41,0,0,0-2.2-2.52,5.41,5.41,0,0,0-7.59,7.19A4.31,4.31,0,0,0,17.51,104.61Z"/></svg>