<svg id="Capa_1" data-name="Capa 1" xmlns="http://www.w3.org/2000/svg" viewBox="0 0 120 120"><defs><style>.cls-1{fill:#fff;}</style></defs><path class="cls-1" d="M15.92,104c1.89-7,3.62-13.63,5.47-20.19A5.48,5.48,0,0,0,21,79.58,43.71,43.71,0,0,1,49.49,17.29c26.75-6.72,53.77,13.73,54.57,41.3.64,22-16.23,41.51-38.19,44.34A42.35,42.35,0,0,1,41.1,99.07a6.23,6.23,0,0,0-4.74-.35c-5.91,1.59-11.83,3.14-17.75,4.7C17.87,103.61,17.11,103.74,15.92,104ZM60.29,23.38A34.69,34.69,0,0,0,38.88,30C23,41.68,18.9,61.13,28.59,78.25a5.2,5.2,0,0,1,.58,4.67c-1,3-1.7,6.06-2.57,9.08-.4,1.37-.29,2,1.41,1.5,2.68-.8,5.43-1.36,8.1-2.19a8.64,8.64,0,0,1,7.16.81c23.67,12.44,52.86-4.75,53.62-31.46C97.46,40.92,80.25,23.39,60.29,23.38Z"/><path class="cls-1" d="M71,80.73a32.5,32.5,0,0,1-14.16-5.14A47.5,47.5,0,0,1,39.47,56.67c-2.63-5-2.53-10.14,1.17-14.78,2.86-3.6,6.88-3.18,8.77.89,1,2.22,1.9,4.51,2.77,6.79s-.71,3.59-1.94,4.82c-1.53,1.53-1.22,2.7-.29,4.34,3.24,5.7,8.4,9,14.08,11.76,1.54.75,2.43-.12,3.35-1.16,4-4.49,4-4.48,9.49-1.85a11.36,11.36,0,0,1,1.61.88c1.27.9,3.68.73,3.53,3-.16,2.52-.63,5.07-2.93,6.74A12.32,12.32,0,0,1,71,80.73Z"/></svg>